<svg xmlns="http://www.w3.org/2000/svg" xmlns:xlink="http://www.w3.org/1999/xlink" width="500" zoomAndPan="magnify" viewBox="0 0 375 374.999991" height="500" preserveAspectRatio="xMidYMid meet" version="1.0"><defs><clipPath id="63a93975a5"><path d="M 112.609375 13.097656 L 375 13.097656 L 375 361.605469 L 112.609375 361.605469 Z M 112.609375 13.097656 " clip-rule="nonzero"/></clipPath><clipPath id="cd3f982477"><path d="M 112.609375 274.136719 L 112.609375 100.84375 L 375.015625 13.375 L 375.015625 361.605469 Z M 112.609375 274.136719 " clip-rule="nonzero"/></clipPath><clipPath id="b8e6fca3b8"><path d="M 0 63.867188 L 112.578125 63.867188 L 112.578125 311.917969 L 0 311.917969 Z M 0 63.867188 " clip-rule="nonzero"/></clipPath><clipPath id="844f022480"><path d="M 112.578125 101.394531 L 112.578125 274.347656 L -0.0117188 311.878906 L -0.0117188 63.867188 Z M 112.578125 101.394531 " clip-rule="nonzero"/></clipPath></defs><g clip-path="url(#63a93975a5)"><g clip-path="url(#cd3f982477)"><path fill="#000000" d="M 112.609375 361.605469 L 112.609375 13.097656 L 375.015625 13.097656 L 375.015625 361.605469 Z M 112.609375 361.605469 " fill-opacity="1" fill-rule="nonzero"/></g></g><g clip-path="url(#b8e6fca3b8)"><g clip-path="url(#844f022480)"><path fill="#000000" d="M 112.578125 63.867188 L 112.578125 311.917969 L -0.0117188 311.917969 L -0.0117188 63.867188 Z M 112.578125 63.867188 " fill-opacity="1" fill-rule="nonzero"/></g></g><path stroke-linecap="butt" transform="matrix(0, -3.110382, 3.110382, 0, 97.047531, 287.847168)" fill="none" stroke-linejoin="miter" d="M -0.000156878 4.999427 L 72.020495 4.999427 " stroke="#ffffff" stroke-width="10" stroke-opacity="1" stroke-miterlimit="4"/></svg>