<svg width="1519" height="221" viewBox="0 0 1519 221" fill="none" xmlns="http://www.w3.org/2000/svg">
<rect width="1519" height="221" fill="white"/>
<path d="M1404.77 202.93H1488.03V219.51H1404.77V202.93ZM1396.61 161.765H1497.7V219.51H1478.21V178.203H1415.19V219.51H1396.61V161.765ZM1426.23 90.0129H1449.92C1446.6 95.8255 1440.03 108.213 1436.2 114.312C1432.47 120.315 1428.69 126.032 1424.87 131.463C1421.04 136.8 1417.41 141.564 1413.99 145.757L1397.66 139.468C1401.09 135.084 1404.57 130.082 1408.09 124.46C1411.62 118.742 1414.94 112.882 1418.07 106.879C1421.29 100.876 1424.01 95.2538 1426.23 90.0129ZM1462.49 115.455L1476.85 105.45C1481.89 109.261 1484.31 110.691 1489.54 115.455C1494.88 120.124 1500.73 124.889 1505.16 129.748C1509.69 134.513 1516.09 148.33 1516.09 157.698H1495.79C1495.79 154.575 1495.79 151.452 1491.81 143.899C1487.58 138.944 1482.89 133.989 1477.76 129.034C1472.62 124.079 1467.53 119.552 1462.49 115.455ZM1380.44 131.606C1388.09 131.416 1396.61 131.178 1405.98 130.892C1415.45 130.511 1425.37 130.129 1435.75 129.748C1446.22 129.367 1456.85 128.986 1467.63 128.605C1478.41 128.224 1488.99 127.843 1499.37 127.461L1498.61 144.042C1488.13 144.613 1477.55 145.137 1466.88 145.614C1456.2 145.995 1445.72 146.424 1435.44 146.9C1425.27 147.281 1415.6 147.663 1406.43 148.044C1397.26 148.33 1388.95 148.615 1381.5 148.901L1380.44 131.606Z" fill="black"/>
<path d="M1234.04 94.0334H1354.93V111.042H1234.04V94.0334ZM1226.03 154.637H1363.7V171.932H1226.03V154.637ZM1243.11 120.333L1259.73 115.616C1261.44 118.761 1263.1 122.096 1264.71 125.622C1266.43 129.052 1267.89 132.482 1269.1 135.913C1270.41 139.248 1273.29 147.538 1273.89 150.206H1254.29C1253.78 147.538 1252.98 144.536 1251.87 141.201C1250.76 137.771 1249.45 134.245 1247.94 130.624C1246.43 126.908 1244.82 123.478 1243.11 120.333ZM1329.24 115.188L1348.73 119.904C1346.92 123.621 1345.01 127.289 1342.99 130.91C1341.08 134.531 1339.16 138.009 1337.25 141.344C1335.44 144.584 1333.67 147.443 1331.96 149.92H1312.49C1314.11 147.157 1319.32 139.581 1320.93 136.056C1322.64 132.53 1324.2 128.957 1325.61 125.336C1327.13 121.715 1328.33 118.332 1329.24 115.188ZM1285.12 101.18H1304C1304 101.18 1306.32 180.566 1304 196.632C1301.69 212.697 1297.05 219.386 1297.05 219.386H1276.98C1276.98 219.386 1283.16 209.776 1285.12 196.632C1287.07 183.487 1285.12 101.18 1285.12 101.18Z" fill="black"/>
<path d="M1112.09 183.795H1129.92V199.089C1129.92 200.995 1130.42 202.186 1131.43 202.662C1132.44 203.139 1134.7 203.377 1138.23 203.377C1139.04 203.377 1140.35 203.377 1142.16 203.377C1143.97 203.377 1145.94 203.377 1148.05 203.377C1150.27 203.377 1152.34 203.377 1154.25 203.377C1156.26 203.377 1157.83 203.377 1158.93 203.377C1160.65 203.377 1161.96 203.139 1162.86 202.662C1163.87 202.186 1164.58 201.138 1164.98 199.518C1165.48 197.898 1165.83 195.516 1166.04 192.371C1167.25 193.229 1168.76 194.039 1170.57 194.801C1172.48 195.563 1174.45 196.23 1176.46 196.802C1178.48 197.374 1180.29 197.803 1181.9 198.089C1181.2 203.425 1180.04 207.522 1178.43 210.381C1176.92 213.239 1174.75 215.193 1171.93 216.241C1169.11 217.384 1165.33 217.956 1160.6 217.956C1159.79 217.956 1158.53 217.956 1156.82 217.956C1155.21 217.956 1153.39 217.956 1151.38 217.956C1149.36 217.956 1147.3 217.956 1145.18 217.956C1143.17 217.956 1141.35 217.956 1139.74 217.956C1138.13 217.956 1136.92 217.956 1136.12 217.956C1129.67 217.956 1124.68 217.384 1121.15 216.241C1117.73 215.193 1115.36 213.287 1114.05 210.524C1112.74 207.76 1112.09 203.996 1112.09 199.232V183.795ZM1128.86 182.223L1140.5 173.075C1144.33 174.886 1148.25 177.125 1152.28 179.793C1156.31 182.461 1159.44 185.082 1161.65 187.654L1149.26 197.66C1147.25 195.278 1144.28 192.657 1140.35 189.798C1136.52 186.844 1132.69 184.319 1128.86 182.223ZM1175.25 190.227L1189.76 182.366C1193.09 184.748 1196.36 187.416 1199.58 190.37C1202.81 193.324 1205.73 196.326 1208.35 199.375C1211.07 202.424 1213.18 205.283 1214.7 207.951L1198.98 216.527C1197.67 213.859 1195.76 210.952 1193.24 207.808C1190.72 204.759 1187.9 201.709 1184.77 198.66C1181.75 195.516 1178.58 192.705 1175.25 190.227ZM1091.54 183.795L1107.25 189.227C1105.24 194.563 1102.62 199.708 1099.39 204.663C1096.27 209.618 1092.14 213.811 1087 217.242L1072.34 207.522C1076.98 204.854 1080.91 201.376 1084.13 197.088C1087.36 192.8 1089.82 188.369 1091.54 183.795ZM1088.51 137.914H1197.77V179.65H1087.61V168.93H1179.94V148.634H1088.51V137.914ZM1093.95 153.636H1185.83V163.499H1093.95V153.636ZM1078.99 91.1747H1138.68V101.323H1078.99V91.1747ZM1082.62 105.754H1136.87V115.616H1082.62V105.754ZM1101.21 85.3145H1117.83V136.056H1101.21V85.3145ZM1144.58 91.1747H1206.53V101.323H1144.58V91.1747ZM1143.37 120.333H1209.56V130.338H1143.37V120.333ZM1147.6 105.754H1204.12V115.616H1147.6V105.754ZM1166.04 85.3145H1182.96V136.056H1166.04V85.3145ZM1077.03 121.476C1082.37 121.381 1088.41 121.238 1095.16 121.048C1101.91 120.762 1109.07 120.476 1116.62 120.19C1124.18 119.904 1131.83 119.618 1139.59 119.332L1139.29 129.767C1128.11 130.338 1117.07 130.91 1106.19 131.482C1095.31 131.958 1085.74 132.339 1077.48 132.625L1077.03 121.476Z" fill="black"/>
<path d="M943.591 158.782H1042.57V214.669H1023.98V172.217H961.271V214.669H943.591V158.782ZM954.169 180.222H1030.33V192.657H954.169V180.222ZM941.022 96.0342H989.077V109.327H941.022V96.0342ZM923.19 118.618H992.703V132.053H923.19V118.618ZM954.169 200.947H1030.33V214.669H954.169V200.947ZM952.204 99.8934H969.432V115.759C969.432 119.38 968.928 123.287 967.92 127.479C966.913 131.577 965.15 135.77 962.631 140.058C960.113 144.25 956.436 148.348 951.6 152.35C946.764 156.257 940.518 159.878 932.862 163.213C931.753 161.497 930.041 159.496 927.724 157.21C925.507 154.923 923.392 153.112 921.377 151.778C928.53 149.205 934.171 146.394 938.302 143.345C942.432 140.2 945.455 137.008 947.369 133.769C949.384 130.433 950.693 127.194 951.298 124.049C951.902 120.905 952.204 118.046 952.204 115.473V99.8934ZM938.453 84.3137L954.471 87.4582C952.658 93.8426 950.089 99.9411 946.764 105.754C943.44 111.566 939.863 116.426 936.035 120.333C935.028 119.571 933.617 118.665 931.804 117.617C930.091 116.569 928.328 115.568 926.515 114.615C924.802 113.663 923.241 112.9 921.83 112.329C925.759 108.898 929.134 104.705 931.955 99.7505C934.877 94.7955 937.043 89.6499 938.453 84.3137ZM966.409 131.482C967.82 132.053 969.784 133.006 972.303 134.34C974.821 135.674 977.441 137.104 980.161 138.628C982.982 140.058 985.601 141.439 988.019 142.773C990.437 144.012 992.149 145.013 993.157 145.775L980.312 156.638C978.801 155.399 976.887 153.97 974.569 152.35C972.353 150.73 969.986 149.062 967.467 147.347C965.049 145.537 962.631 143.869 960.214 142.344C957.896 140.82 955.882 139.486 954.169 138.342L966.409 131.482ZM1014.61 110.756V135.055H1037.58V110.756H1014.61ZM997.69 95.7484H1055.57V150.206H997.69V95.7484Z" fill="black"/>
<path d="M741.542 110.042H866.363V174.647H847.323V126.908H759.676V174.647H741.542V110.042ZM750.911 157.781H857.901V174.647H750.911V157.781ZM793.663 98.7762C795.207 91.4736 799.839 85.1715 799.839 85.1715H818.369C818.369 85.1715 813.736 92.9341 812.192 98.7762C810.648 104.618 813.019 175.468 813.019 193.058C813.019 210.648 807.56 218.539 807.56 218.539H787.486C787.486 218.539 793.663 208.316 793.828 193.058C793.993 177.8 792.118 106.079 793.663 98.7762Z" fill="black"/>
<path d="M586.348 97.0349H719.027V111.757H586.348V97.0349ZM642.411 85.0286H660.999V104.325H642.411V85.0286ZM592.241 154.78H702.857V168.93H609.922V219.528H592.241V154.78ZM696.057 154.78H714.191V201.376C714.191 205.283 713.687 208.427 712.68 210.81C711.672 213.287 709.708 215.193 706.786 216.527C703.865 217.766 700.389 218.528 696.359 218.814C692.33 219.1 689.57 220 684.029 220C684.029 217.079 684.029 214.158 684.029 211.237C684.029 208.316 684.029 206.855 684.029 203.377C687.555 203.472 688.526 203.282 691.75 203.377C695.074 203.377 692.027 203.472 693.035 203.377C694.244 203.282 695.05 203.091 695.453 202.805C695.856 202.519 696.057 201.948 696.057 201.09V154.78ZM623.522 175.505H639.238V214.24H623.522V175.505ZM631.531 175.505H681.55V207.665H631.531V196.087H665.683V187.083H631.531V175.505ZM628.358 128.623V137.342H675.808V128.623H628.358ZM611.131 117.188H694.244V148.777H611.131V117.188Z" fill="black"/>
<path d="M462.436 128.48H540.426L543.433 138.199H458.96L462.436 128.48ZM469.396 113.758H533.913L537.087 123.049H466.214L469.396 113.758ZM492.659 107.755H509.13V134.197H492.659V107.755ZM490.996 167.501H506.864V195.801H490.996V167.501ZM507.619 164.785C510.238 167.739 513.613 170.598 517.744 173.361C521.874 176.029 526.408 178.364 531.344 180.365C536.381 182.366 541.519 183.986 546.758 185.224C545.247 186.463 543.584 188.178 541.771 190.37C539.958 192.466 538.497 194.324 537.389 195.944C531.949 194.324 526.609 192.18 521.371 189.512C516.233 186.749 511.498 183.604 507.166 180.079C502.834 176.458 499.157 172.742 496.134 168.93L507.619 164.785ZM500.517 158.925L514.117 163.499C510.289 167.691 505.655 171.646 500.214 175.362C494.875 179.078 489.183 182.413 483.138 185.367C477.094 188.321 468.38 192.551 462.436 194.648C461.831 193.695 461.276 192.21 460.131 190.789C458.922 189.36 458.252 187.742 457.043 186.408C455.834 185.074 454.962 184.344 453.955 183.487C459.697 181.867 466.919 178.507 472.56 176.22C478.303 173.837 483.592 171.217 488.427 168.358C493.364 165.404 497.394 162.26 500.517 158.925ZM533.46 162.784L544.34 169.359C541.116 171.836 537.641 174.123 533.913 176.22C530.286 178.316 526.962 180.126 523.94 181.651L515.024 175.791C516.938 174.647 519.053 173.313 521.371 171.789C523.688 170.264 525.904 168.739 528.02 167.215C530.135 165.595 531.949 164.118 533.46 162.784ZM481.778 151.206V158.353H520.766V151.206H481.778ZM466.667 142.487H536.633V167.072H466.667V142.487ZM436.746 90.7457H566.252V214.383H548.571V106.04H453.822V214.383H446.234H436.746V90.7457ZM447.626 198.946H558.092V214.383H447.626V198.946Z" fill="black"/>
<path d="M348.494 114.902H418.46V131.053H348.494V114.902ZM373.428 85.0286H391.713V219.243H373.428V85.0286ZM373.276 122.62L386.424 126.908C384.409 133.673 382.041 140.487 379.321 147.347C376.702 154.208 373.679 160.878 370.254 167.358C366.93 173.742 365.134 175.039 361.306 180.566C356.883 186.879 342.934 199.441 337.009 199.553C337.009 197.645 337.017 195.01 337.009 191.444C337.009 189.329 336.969 186.915 337.009 183.795C343.063 179.876 346.87 175.011 350.497 170.342C356.09 162.993 358.183 158.152 361.306 152.816C364.53 147.384 364.814 145.346 367.232 139.629C369.65 133.912 371.665 128.242 373.276 122.62ZM392.77 122.62C394.886 130.052 397.505 137.533 400.628 145.06C403.751 152.493 407.227 159.497 411.055 166.071C414.984 172.551 419.014 178.078 423.144 182.652C421.029 184.176 418.611 186.225 415.891 188.798C413.272 191.275 411.156 193.658 409.544 195.944C405.514 190.513 401.686 183.986 398.059 176.363C394.433 168.644 391.158 160.449 388.237 151.778C385.315 143.107 382.847 134.483 380.832 125.907L392.77 122.62ZM282.154 114.902H343.809V131.053H282.154V114.902ZM306.181 85.0286H323.862V219.243H306.181V85.0286ZM305.124 125.479L316.759 129.481C315.349 135.389 313.586 141.439 311.47 147.633C309.456 153.732 307.189 159.735 304.67 165.643C302.152 171.551 299.381 177.03 296.359 182.08C293.437 187.13 290.314 191.514 286.99 195.23C286.184 192.752 284.824 189.941 282.91 186.797C280.996 183.557 279.333 180.794 277.923 178.507C280.945 175.362 283.816 171.741 286.536 167.644C289.256 163.451 291.825 158.973 294.243 154.208C296.661 149.444 298.777 144.632 300.59 139.772C302.504 134.912 304.015 130.148 305.124 125.479ZM323.711 133.197C324.617 133.959 325.877 135.198 327.489 136.913C329.101 138.533 330.864 140.391 332.778 142.488C334.692 144.489 336.606 146.537 338.52 148.634C340.434 150.73 342.147 152.588 343.658 154.208C345.169 155.828 346.277 157.067 346.982 157.924L335.649 172.789C334.44 170.598 332.929 168.12 331.115 165.357C329.302 162.498 327.337 159.64 325.222 156.781C323.106 153.827 321.041 151.064 319.026 148.491C317.112 145.823 315.5 143.631 314.19 141.916L323.711 133.197Z" fill="black"/>
<path d="M191.693 0L206.212 9.27738L220.731 18.5548L147.018 113.184L119.098 94.9628L191.693 0Z" fill="black"/>
<path d="M91.5928 20.4099H129.28L129.28 99.2676L211.554 99.2676L211.554 133.594H132.555C132.555 133.594 148.771 133.594 131.215 133.594C91.5928 133.594 91.5923 105.762 91.5928 68.6523C91.5933 31.5428 91.5928 20.4099 91.5928 20.4099Z" fill="black"/>
<path d="M92.374 141.373C92.3714 142.468 101.403 147.031 107.306 149.028C113.21 151.025 126.753 151.775 126.753 151.775V218.592L92.374 218.592C92.374 218.592 92.3869 136.029 92.374 141.373Z" fill="#1E9BDE"/>
<path d="M0 100.517H74.6613C74.6613 100.517 74.7563 108.298 77.1397 117.217C79.523 126.135 84.7319 133.916 84.7319 133.916H0V100.517Z" fill="#1E9BDE"/>
</svg>
