<svg width="2235" height="221" viewBox="0 0 2235 221" fill="none" xmlns="http://www.w3.org/2000/svg">
<path d="M191.693 0L206.212 9.27738L220.731 18.5548L147.018 113.184L119.098 94.9628L191.693 0Z" fill="black"/>
<path d="M91.5928 20.4099H129.28L129.28 99.2676L211.554 99.2676L211.554 133.594H132.555C132.555 133.594 148.771 133.594 131.215 133.594C91.5928 133.594 91.5923 105.762 91.5928 68.6523C91.5933 31.5428 91.5928 20.4099 91.5928 20.4099Z" fill="black"/>
<path d="M92.374 141.373C92.3714 142.468 101.403 147.031 107.306 149.028C113.21 151.025 126.753 151.775 126.753 151.775V218.592L92.374 218.592C92.374 218.592 92.3869 136.029 92.374 141.373Z" fill="#1E9BDE"/>
<path d="M0 100.517H74.6613C74.6613 100.517 74.7563 108.298 77.1397 117.217C79.523 126.135 84.7319 133.916 84.7319 133.916H0V100.517Z" fill="#1E9BDE"/>
<path d="M1894.86 183.566H2013.89V207.268H1894.86V183.566ZM1883.2 124.72H2027.72L2033.86 207.268H2004.56L1999.85 148.217H1909.77L1905.92 207.268H1878.04L1883.2 124.72ZM1925.54 22.1472H1959.42C1954.66 30.4565 1945.27 48.1649 1939.8 56.8829C1934.47 65.4647 1929.07 73.6378 1923.6 81.4022C1918.12 89.0305 1912.94 95.8414 1908.04 101.835L1884.71 92.8446C1889.61 86.5785 1894.58 79.4271 1899.62 71.3902C1904.66 63.2171 1909.41 54.8396 1913.87 46.2579C1918.48 37.6761 1922.37 29.6392 1925.54 22.1472ZM1977.39 58.5175L1997.91 44.2146C2005.11 49.6633 2008.57 51.7066 2016.06 58.5175C2023.69 65.1922 2032.04 72.0032 2038.38 78.9503C2044.86 85.7612 2054 105.513 2054 118.905H2024.98C2024.98 114.441 2024.98 109.977 2019.29 99.1787C2013.25 92.0954 2006.55 85.012 1999.2 77.9287C1991.86 70.8453 1984.59 64.3749 1977.39 58.5175ZM1860.08 81.6066C1871.03 81.3341 1883.2 80.9936 1896.59 80.5849C1910.13 80.04 1924.32 79.4952 1939.15 78.9503C1954.13 78.4054 1969.32 77.8605 1984.73 77.3157C2000.14 76.7708 2015.26 76.2259 2030.1 75.6811L2029.01 99.383C2014.04 100.2 1998.92 100.95 1983.65 101.631C1968.38 102.176 1953.41 102.789 1938.72 103.47C1924.17 104.014 1910.35 104.559 1897.24 105.104C1884.13 105.513 1872.25 105.922 1861.6 106.33L1860.08 81.6066Z" fill="black"/>
<path d="M1650.8 27.8947H1823.62V52.2096H1650.8V27.8947ZM1639.35 114.53H1836.15V139.253H1639.35V114.53ZM1663.76 65.4909L1687.53 58.7481C1689.97 63.2433 1692.35 68.011 1694.65 73.0511C1697.1 77.9549 1699.19 82.8588 1700.92 87.7626C1702.79 92.5303 1706.91 104.381 1707.77 108.195H1679.75C1679.03 104.381 1677.88 100.09 1676.29 95.3228C1674.71 90.4189 1672.84 85.3788 1670.68 80.2025C1668.52 74.89 1666.21 69.9861 1663.76 65.4909ZM1786.9 58.1351L1814.76 64.878C1812.17 70.1905 1809.44 75.4349 1806.56 80.6112C1803.82 85.7875 1801.08 90.7595 1798.35 95.5271C1795.75 100.159 1793.23 104.245 1790.79 107.787H1762.96C1765.26 103.836 1772.71 93.0071 1775.02 87.967C1777.46 82.9269 1779.7 77.8187 1781.71 72.6424C1783.87 67.4661 1785.6 62.6303 1786.9 58.1351ZM1723.82 38.111H1750.82C1750.82 38.111 1754.14 151.596 1750.82 174.562C1747.51 197.529 1740.88 207.09 1740.88 207.09H1712.19C1712.19 207.09 1721.02 193.353 1723.82 174.562C1726.62 155.771 1723.82 38.111 1723.82 38.111Z" fill="black"/>
<path d="M1476.47 156.212H1501.96V178.075C1501.96 180.8 1502.68 182.503 1504.12 183.184C1505.56 183.865 1508.8 184.205 1513.84 184.205C1514.99 184.205 1516.87 184.205 1519.46 184.205C1522.05 184.205 1524.86 184.205 1527.88 184.205C1531.05 184.205 1534 184.205 1536.74 184.205C1539.62 184.205 1541.85 184.205 1543.44 184.205C1545.88 184.205 1547.76 183.865 1549.05 183.184C1550.49 182.503 1551.5 181.004 1552.08 178.688C1552.8 176.373 1552.54 176.441 1552.82 171.946C1554.97 172.23 1557.83 172.945 1559.97 173.66C1562.71 174.749 1565.67 175.701 1568.55 176.519C1571.43 177.336 1573.39 178.28 1575.7 178.688C1574.69 186.317 1573.61 190.131 1571.3 194.217C1569.14 198.304 1566.05 201.096 1562.01 202.595C1557.98 204.229 1552.58 205.047 1545.81 205.047C1544.66 205.047 1542.86 205.047 1540.41 205.047C1538.11 205.047 1535.52 205.047 1532.64 205.047C1529.75 205.047 1526.8 205.047 1523.78 205.047C1520.9 205.047 1518.31 205.047 1516 205.047C1513.7 205.047 1511.97 205.047 1510.82 205.047C1501.6 205.047 1494.47 204.229 1489.43 202.595C1484.53 201.096 1481.15 198.372 1479.28 194.422C1477.4 190.471 1476.47 185.091 1476.47 178.28V156.212ZM1500.45 153.965L1517.08 140.888C1522.55 143.476 1528.17 146.677 1533.93 150.491C1539.69 154.305 1544.16 158.051 1547.32 161.729L1529.61 176.032C1526.73 172.627 1522.48 168.881 1516.87 164.794C1511.39 160.571 1505.92 156.962 1500.45 153.965ZM1554.97 154.169H1587.51C1592.26 157.575 1596.94 161.389 1601.55 165.611C1606.16 169.834 1610.33 174.125 1614.08 178.484C1617.96 182.843 1620.99 186.93 1623.15 190.744L1600.68 203.003C1598.81 199.189 1596.07 195.035 1592.47 190.539C1588.87 186.18 1584.84 181.821 1580.38 177.462C1576.06 172.967 1559.72 157.711 1554.97 154.169ZM1447.09 156.212H1472.77C1469.89 163.841 1462.93 178.961 1458.32 186.044C1453.86 193.128 1447.95 199.121 1440.61 204.025L1419.65 190.131C1426.28 186.317 1431.9 181.345 1436.5 175.215C1441.11 169.085 1444.64 162.751 1447.09 156.212ZM1442.77 90.6232H1598.95V150.287H1441.47V134.962H1573.46V105.948H1442.77V90.6232ZM1450.55 113.099H1581.89V127.198H1450.55V113.099ZM1429.16 23.8081H1514.49V38.3154H1429.16V23.8081ZM1434.34 44.6495H1511.9V58.7481H1434.34V44.6495ZM1460.91 15.4307H1484.68V87.967H1460.91V15.4307ZM1522.91 23.8081H1611.48V38.3154H1522.91V23.8081ZM1521.19 65.4909H1615.8V79.7939H1521.19V65.4909ZM1527.23 44.6495H1608.03V58.7481H1527.23V44.6495ZM1553.59 15.4307H1577.78V87.967H1553.59V15.4307ZM1426.35 67.1256C1433.98 66.9893 1442.62 66.785 1452.27 66.5126C1461.92 66.1039 1472.15 65.6953 1482.95 65.2866C1493.75 64.878 1505.28 63.994 1516.37 63.5853V78.5955C1500.38 79.4128 1483.6 80.6112 1468.04 81.4285C1452.49 82.1096 1438.16 83.1902 1426.35 83.5988V67.1256Z" fill="black"/>
<path d="M1235.6 120.455H1377.09L1381.28 200.347H1354.12L1350.52 139.661H1260.87L1257.62 200.347H1231.89L1235.6 120.455ZM1250.72 151.104H1359.59V168.88H1250.72V151.104ZM1231.92 30.7549H1300.62V49.7573H1231.92V30.7549ZM1206.43 63.0386H1305.8V82.2454H1206.43V63.0386ZM1250.72 180.731H1359.59V200.347H1250.72V180.731ZM1247.91 36.2717H1272.54V58.9521C1272.54 64.1284 1271.82 69.7133 1270.38 75.7069C1268.94 81.5643 1266.41 87.5579 1262.81 93.6878C1259.21 99.6814 1253.96 105.539 1247.04 111.26C1240.13 116.845 1214.79 126.006 1203.84 130.773C1203.84 126.485 1204.02 124.756 1204.02 120.052C1204.02 116.179 1204.02 115.049 1203.84 110.443C1214.07 106.765 1222.13 102.746 1228.03 98.3873C1233.94 93.8921 1238.26 89.3288 1241 84.6974C1243.88 79.9297 1245.75 75.2983 1246.61 70.8031C1247.48 66.3079 1247.91 62.2213 1247.91 58.5434V36.2717ZM1228.25 14L1251.15 18.4952C1248.56 27.6218 1244.88 36.3398 1240.13 44.6491C1235.38 52.9585 1230.27 59.9056 1224.79 65.4906C1223.35 64.4008 1221.34 63.1067 1218.75 61.6083C1216.3 60.1099 1213.78 58.6796 1211.18 57.3175C1208.74 55.9553 1206.5 54.8655 1204.49 54.0482C1210.1 49.1444 1214.93 43.1507 1218.96 36.0674C1223.14 28.984 1226.23 21.6282 1228.25 14ZM1268.22 81.4281C1270.23 82.2454 1273.04 83.6076 1276.64 85.5147C1280.24 87.4217 1283.98 89.465 1287.87 91.6445C1291.91 93.6878 1295.65 95.6629 1299.11 97.57C1302.56 99.3408 1305.01 100.771 1306.45 101.861L1288.09 117.39C1285.93 115.619 1283.19 113.576 1279.88 111.26C1276.71 108.944 1273.33 106.56 1269.73 104.108C1266.27 101.52 1262.81 99.1365 1259.36 96.957C1256.05 94.7775 1253.17 92.8705 1250.72 91.2358L1268.22 81.4281ZM1337.13 51.8006V86.5363H1369.96V51.8006H1337.13ZM1312.93 30.3462H1395.67V108.195H1312.93V30.3462Z" fill="black"/>
<path d="M946.76 50.7792H1125.2V143.135H1097.98V74.8899H972.683V143.135H946.76V50.7792ZM960.153 119.025H1113.1V143.135H960.153V119.025ZM1021.27 34.6746C1021.27 24.0067 1021.27 15.2262 1021.27 15.2262H1047.76C1047.76 15.2262 1047.76 26.151 1047.76 34.6746C1047.76 44.0202 1048.94 144.308 1048.94 169.454C1048.94 194.599 1041.13 205.88 1041.13 205.88H1012.44C1012.44 205.88 1021.27 191.265 1021.5 169.454C1021.74 147.642 1021.27 45.3426 1021.27 34.6746Z" fill="black"/>
<path d="M724.904 32.1855H914.574V53.2312H724.904V32.1855ZM810.179 15.022H835.911C835.911 15.022 832.448 23.2344 831.62 28.8141C830.83 34.1419 831.62 42.6062 831.62 42.6062H805.049C805.049 42.6062 804.126 34.1206 805.049 28.8141C806.034 23.1524 810.179 15.022 810.179 15.022ZM733.329 114.734H891.459V134.962H758.604V207.294H733.329V114.734ZM881.738 114.734H907.661V181.345C907.661 186.93 906.941 191.425 905.501 194.83C904.061 198.372 901.252 201.096 897.076 203.003C892.899 204.774 887.931 205.864 882.17 206.273C876.409 206.681 872.465 207.968 864.544 207.968C864.544 203.793 864.544 199.617 864.544 195.441C864.544 191.265 864.544 189.178 864.544 184.205C869.584 184.341 870.972 184.069 875.581 184.205C880.333 184.205 875.977 184.341 877.418 184.205C879.146 184.069 880.298 183.797 880.874 183.388C881.45 182.979 881.738 182.162 881.738 180.936V114.734ZM778.046 144.361H800.513V190.335H778.046V144.361ZM789.496 144.361H861V190.335H789.496V173.785H838.317V160.912H789.496V144.361ZM784.959 77.3419L783.018 89.8059H854.495L852.791 77.3419H784.959ZM760.332 60.9957H879.146L885.23 106.152H754.428L760.332 60.9957Z" fill="black"/>
<path d="M547.768 77.1373H659.259L663.557 91.0316H542.8L547.768 77.1373ZM557.718 56.0916H649.948L654.484 69.3729H553.169L557.718 56.0916ZM590.973 47.5098H614.52V85.3104H590.973V47.5098ZM588.597 132.919H611.279V173.376H588.597V132.919ZM612.359 129.037C616.104 133.259 620.928 137.346 626.833 141.296C632.738 145.11 639.218 148.448 646.275 151.308C653.476 154.169 660.821 156.485 668.31 158.255C666.149 160.026 663.773 162.478 661.181 165.611C658.589 168.608 656.5 171.264 654.916 173.58C647.139 171.264 639.506 168.199 632.018 164.385C624.673 160.435 617.904 155.94 611.711 150.9C605.519 145.723 600.262 140.411 595.942 134.962L612.359 129.037ZM602.206 120.659L621.648 127.198C616.176 133.191 609.551 138.844 601.774 144.157C594.141 149.469 586.004 154.237 577.363 158.46C568.722 162.683 556.265 168.729 547.768 171.726C546.904 170.364 546.11 168.242 544.474 166.211C542.746 164.167 541.787 161.854 540.059 159.947C538.331 158.04 537.085 156.997 535.644 155.771C543.853 153.456 554.177 148.652 562.242 145.383C570.451 141.977 578.012 138.231 584.924 134.145C591.981 129.922 597.742 125.427 602.206 120.659ZM649.3 126.176L664.853 135.575C660.245 139.117 655.276 142.386 649.948 145.383C644.763 148.38 640.011 150.968 635.69 153.147L622.945 144.77C625.681 143.135 628.705 141.228 632.018 139.049C635.33 136.869 638.498 134.69 641.523 132.51C644.547 130.194 647.139 128.083 649.3 126.176ZM575.419 109.625V119.842H631.154V109.625H575.419ZM553.817 97.1614H653.836V132.306H553.817V97.1614ZM511.044 23.1948H696.177V199.938H670.902V45.0579H535.455V199.938H524.607H511.044V23.1948ZM526.598 177.871H684.512V199.938H526.598V177.871Z" fill="black"/>
<path d="M384.883 57.7264H481.23L484.903 80.8154H384.883V57.7264ZM420.527 15.022H446.666V206.886H420.527V15.022ZM420.311 68.7601L439.106 74.89C436.225 84.5615 432.841 94.3011 428.952 104.109C425.208 113.917 420.887 123.452 415.991 132.715C411.238 141.841 408.672 143.695 403.199 151.596C396.876 160.62 376.936 178.579 368.466 178.738C368.466 176.011 368.478 172.245 368.466 167.147C368.466 164.123 368.408 160.673 368.466 156.212C377.119 150.609 382.563 143.655 387.748 136.981C395.743 126.475 398.735 119.554 403.199 111.926C407.808 104.162 408.214 101.248 411.67 93.0751C415.127 84.902 418.007 76.797 420.311 68.7601ZM448.179 68.7601C451.203 79.3852 454.947 90.0783 459.412 100.84C463.876 111.465 468.845 121.477 474.317 130.876C479.934 140.139 484.96 149.357 491.599 154.578C491.599 157.935 491.599 178.663 491.599 178.663C481.386 178.663 460.924 156.485 455.739 145.587C450.555 134.554 445.874 122.839 441.698 110.443C437.521 98.0471 433.993 85.7193 431.113 73.4597L448.179 68.7601ZM296.313 57.7264H378.187V80.8154H290.049L296.313 57.7264ZM324.397 15.022H349.671V206.886H324.397V15.022ZM322.884 72.8467L339.518 78.5678C337.502 87.0134 334.982 95.6633 331.957 104.517C329.077 113.235 325.837 121.817 322.236 130.263C318.636 138.708 314.675 146.541 310.355 153.76C306.179 160.98 301.714 167.246 296.961 172.559C295.809 169.017 293.865 164.998 291.129 160.503C288.392 155.872 286.016 151.921 284 148.652C288.32 144.157 292.425 138.981 296.313 133.123C300.202 127.13 303.874 120.727 307.331 113.917C310.787 107.106 313.811 100.227 316.404 93.2794C319.14 86.3323 321.3 79.5214 322.884 72.8467ZM349.455 83.8804C350.752 84.9701 352.552 86.741 354.856 89.1929C357.16 91.5086 359.681 94.1649 362.417 97.1617C365.153 100.022 367.889 102.951 370.626 105.948C373.362 108.945 375.81 111.601 377.971 113.917C380.131 116.232 381.715 118.003 382.723 119.229C382.723 119.229 378.821 126.567 375.601 130.774C372.445 134.894 366.521 140.479 366.521 140.479C364.793 137.346 362.633 133.804 360.041 129.854C357.448 125.768 354.64 121.681 351.616 117.594C348.591 113.372 345.639 109.421 342.759 105.743C340.022 101.929 337.718 98.7963 335.846 96.3444L349.455 83.8804Z" fill="black"/>
<path d="M2090.23 32.25V23.1818H2144.26V32.25H2122.48V93H2111.98V32.25H2090.23ZM2156.2 23.1818H2168.99L2191.21 77.4545H2192.03L2214.26 23.1818H2227.04V93H2217.02V42.4773H2216.37L2195.78 92.8977H2187.46L2166.87 42.4432H2166.22V93H2156.2V23.1818Z" fill="black"/>
</svg>
