<svg width="635" height="582" viewBox="0 0 635 582" fill="none" xmlns="http://www.w3.org/2000/svg">
<rect x="135" y="105" width="350" height="359" rx="42" fill="url(#paint0_linear_82_2)"/>
<rect x="181" y="257" width="67" height="67" rx="33.5" fill="url(#paint1_linear_82_2)"/>
<rect x="276" y="257" width="67" height="67" rx="33.5" fill="url(#paint2_linear_82_2)"/>
<rect x="371" y="257" width="67" height="67" rx="33.5" fill="url(#paint3_linear_82_2)"/>
<rect x="181" y="353" width="67" height="67" rx="33.5" fill="url(#paint4_linear_82_2)"/>
<rect x="276" y="353" width="67" height="67" rx="33.5" fill="url(#paint5_linear_82_2)"/>
<rect x="371" y="353" width="67" height="67" rx="33.5" fill="url(#paint6_linear_82_2)"/>
<path d="M135 147C135 123.804 153.804 105 177 105H443C466.196 105 485 123.804 485 147V223H135V147Z" fill="url(#paint7_linear_82_2)"/>
<defs>
<linearGradient id="paint0_linear_82_2" x1="135" y1="463.853" x2="199.309" y2="59.6887" gradientUnits="userSpaceOnUse">
<stop stop-color="#FEF3E6"/>
<stop offset="1" stop-color="#F2CFBE"/>
</linearGradient>
<linearGradient id="paint1_linear_82_2" x1="181" y1="323.973" x2="192.715" y2="248.451" gradientUnits="userSpaceOnUse">
<stop stop-color="#E7D5C2"/>
<stop offset="1" stop-color="#F2CFBE"/>
</linearGradient>
<linearGradient id="paint2_linear_82_2" x1="276" y1="323.973" x2="287.715" y2="248.451" gradientUnits="userSpaceOnUse">
<stop stop-color="#E7D5C2"/>
<stop offset="1" stop-color="#F2CFBE"/>
</linearGradient>
<linearGradient id="paint3_linear_82_2" x1="371" y1="323.973" x2="382.715" y2="248.451" gradientUnits="userSpaceOnUse">
<stop stop-color="#E7D5C2"/>
<stop offset="1" stop-color="#F2CFBE"/>
</linearGradient>
<linearGradient id="paint4_linear_82_2" x1="181" y1="419.973" x2="192.715" y2="344.451" gradientUnits="userSpaceOnUse">
<stop stop-color="#E7D5C2"/>
<stop offset="1" stop-color="#F2CFBE"/>
</linearGradient>
<linearGradient id="paint5_linear_82_2" x1="276" y1="419.973" x2="287.715" y2="344.451" gradientUnits="userSpaceOnUse">
<stop stop-color="#E7D5C2"/>
<stop offset="1" stop-color="#F2CFBE"/>
</linearGradient>
<linearGradient id="paint6_linear_82_2" x1="371" y1="419.973" x2="382.715" y2="344.451" gradientUnits="userSpaceOnUse">
<stop stop-color="#E7D5C2"/>
<stop offset="1" stop-color="#F2CFBE"/>
</linearGradient>
<linearGradient id="paint7_linear_82_2" x1="160.337" y1="105" x2="459.663" y2="223" gradientUnits="userSpaceOnUse">
<stop stop-color="#F4C5AD"/>
<stop offset="1" stop-color="#FBD0B6"/>
</linearGradient>
</defs>
</svg>
