<svg width="635" height="582" viewBox="0 0 635 582" fill="none" xmlns="http://www.w3.org/2000/svg">
<rect x="106" y="79" width="423" height="423" rx="80" fill="url(#paint0_linear_82_13)"/>
<rect x="162" y="258" width="81" height="79" rx="39.5" fill="url(#paint1_linear_82_13)"/>
<rect x="276" y="258" width="81" height="79" rx="39.5" fill="url(#paint2_linear_82_13)"/>
<rect x="391" y="258" width="81" height="79" rx="39.5" fill="url(#paint3_linear_82_13)"/>
<rect x="162" y="371" width="81" height="79" rx="39.5" fill="url(#paint4_linear_82_13)"/>
<rect x="276" y="371" width="81" height="79" rx="39.5" fill="url(#paint5_linear_82_13)"/>
<rect x="391" y="371" width="81" height="79" rx="39.5" fill="url(#paint6_linear_82_13)"/>
<path d="M106 159C106 114.817 141.817 79 186 79H449C493.183 79 529 114.817 529 159V218H106V159Z" fill="url(#paint7_linear_82_13)"/>
<defs>
<linearGradient id="paint0_linear_82_13" x1="106" y1="501.827" x2="179.964" y2="25.028" gradientUnits="userSpaceOnUse">
<stop stop-color="#322D27"/>
<stop offset="1" stop-color="#87614E"/>
</linearGradient>
<linearGradient id="paint1_linear_82_13" x1="162" y1="336.968" x2="175.488" y2="247.818" gradientUnits="userSpaceOnUse">
<stop stop-color="#63584D"/>
<stop offset="1" stop-color="#8D6957"/>
</linearGradient>
<linearGradient id="paint2_linear_82_13" x1="276" y1="336.968" x2="289.488" y2="247.818" gradientUnits="userSpaceOnUse">
<stop stop-color="#63584D"/>
<stop offset="1" stop-color="#8D6957"/>
</linearGradient>
<linearGradient id="paint3_linear_82_13" x1="391" y1="336.968" x2="404.488" y2="247.818" gradientUnits="userSpaceOnUse">
<stop stop-color="#63584D"/>
<stop offset="1" stop-color="#8D6957"/>
</linearGradient>
<linearGradient id="paint4_linear_82_13" x1="162" y1="449.968" x2="175.488" y2="360.818" gradientUnits="userSpaceOnUse">
<stop stop-color="#63584D"/>
<stop offset="1" stop-color="#8D6957"/>
</linearGradient>
<linearGradient id="paint5_linear_82_13" x1="276" y1="449.968" x2="289.488" y2="360.818" gradientUnits="userSpaceOnUse">
<stop stop-color="#63584D"/>
<stop offset="1" stop-color="#8D6957"/>
</linearGradient>
<linearGradient id="paint6_linear_82_13" x1="391" y1="449.968" x2="404.488" y2="360.818" gradientUnits="userSpaceOnUse">
<stop stop-color="#63584D"/>
<stop offset="1" stop-color="#8D6957"/>
</linearGradient>
<linearGradient id="paint7_linear_82_13" x1="136.621" y1="79" x2="495.835" y2="224.288" gradientUnits="userSpaceOnUse">
<stop stop-color="#6B5A52"/>
<stop offset="1" stop-color="#856B5A"/>
</linearGradient>
</defs>
</svg>
