<svg width="600" height="600" viewBox="0 0 600 600" fill="none" xmlns="http://www.w3.org/2000/svg">
<rect width="600" height="600" rx="200" fill="url(#paint0_linear_127_240)"/>
<g filter="url(#filter0_d_127_240)">
<path d="M132 195C132 150.817 167.817 115 212 115H388C432.183 115 468 150.817 468 195V234H132V195Z" fill="url(#paint1_linear_127_240)"/>
</g>
<g filter="url(#filter1_d_127_240)">
<path d="M132 234H468V405C468 449.183 432.183 485 388 485H212C167.817 485 132 449.183 132 405V234Z" fill="url(#paint2_linear_127_240)"/>
</g>
<rect x="373" y="157" width="43" height="43" rx="21.5" fill="url(#paint3_linear_127_240)"/>
<rect x="183" y="157" width="43" height="43" rx="21.5" fill="url(#paint4_linear_127_240)"/>
<defs>
<filter id="filter0_d_127_240" x="117" y="115" width="366" height="154" filterUnits="userSpaceOnUse" color-interpolation-filters="sRGB">
<feFlood flood-opacity="0" result="BackgroundImageFix"/>
<feColorMatrix in="SourceAlpha" type="matrix" values="0 0 0 0 0 0 0 0 0 0 0 0 0 0 0 0 0 0 127 0" result="hardAlpha"/>
<feOffset dy="20"/>
<feGaussianBlur stdDeviation="7.5"/>
<feComposite in2="hardAlpha" operator="out"/>
<feColorMatrix type="matrix" values="0 0 0 0 0 0 0 0 0 0 0 0 0 0 0 0 0 0 0.07 0"/>
<feBlend mode="normal" in2="BackgroundImageFix" result="effect1_dropShadow_127_240"/>
<feBlend mode="normal" in="SourceGraphic" in2="effect1_dropShadow_127_240" result="shape"/>
</filter>
<filter id="filter1_d_127_240" x="117" y="234" width="366" height="286" filterUnits="userSpaceOnUse" color-interpolation-filters="sRGB">
<feFlood flood-opacity="0" result="BackgroundImageFix"/>
<feColorMatrix in="SourceAlpha" type="matrix" values="0 0 0 0 0 0 0 0 0 0 0 0 0 0 0 0 0 0 127 0" result="hardAlpha"/>
<feOffset dy="20"/>
<feGaussianBlur stdDeviation="7.5"/>
<feComposite in2="hardAlpha" operator="out"/>
<feColorMatrix type="matrix" values="0 0 0 0 0 0 0 0 0 0 0 0 0 0 0 0 0 0 0.07 0"/>
<feBlend mode="normal" in2="BackgroundImageFix" result="effect1_dropShadow_127_240"/>
<feBlend mode="normal" in="SourceGraphic" in2="effect1_dropShadow_127_240" result="shape"/>
</filter>
<linearGradient id="paint0_linear_127_240" x1="600" y1="593.416" x2="-3.07803e-05" y2="6.58415" gradientUnits="userSpaceOnUse">
<stop stop-color="#D1D381"/>
<stop offset="1" stop-color="white"/>
</linearGradient>
<linearGradient id="paint1_linear_127_240" x1="299.318" y1="115" x2="324.279" y2="228.825" gradientUnits="userSpaceOnUse">
<stop stop-color="white"/>
<stop offset="1" stop-color="#E0DADA"/>
</linearGradient>
<linearGradient id="paint2_linear_127_240" x1="299.318" y1="234" x2="395.196" y2="441.283" gradientUnits="userSpaceOnUse">
<stop stop-color="white"/>
<stop offset="1" stop-color="#E0DADA"/>
</linearGradient>
<linearGradient id="paint3_linear_127_240" x1="394.413" y1="157" x2="413.707" y2="188.161" gradientUnits="userSpaceOnUse">
<stop stop-color="#F6F6F6"/>
<stop offset="1" stop-color="white"/>
</linearGradient>
<linearGradient id="paint4_linear_127_240" x1="204.413" y1="157" x2="223.707" y2="188.161" gradientUnits="userSpaceOnUse">
<stop stop-color="#F6F6F6"/>
<stop offset="1" stop-color="white"/>
</linearGradient>
</defs>
</svg>
