<svg width="635" height="582" viewBox="0 0 635 582" fill="none" xmlns="http://www.w3.org/2000/svg">
<rect x="143" y="111" width="350" height="359" rx="42" fill="url(#paint0_linear_82_13)"/>
<rect x="189" y="263" width="67" height="67" rx="33.5" fill="url(#paint1_linear_82_13)"/>
<rect x="284" y="263" width="67" height="67" rx="33.5" fill="url(#paint2_linear_82_13)"/>
<rect x="379" y="263" width="67" height="67" rx="33.5" fill="url(#paint3_linear_82_13)"/>
<rect x="189" y="359" width="67" height="67" rx="33.5" fill="url(#paint4_linear_82_13)"/>
<rect x="284" y="359" width="67" height="67" rx="33.5" fill="url(#paint5_linear_82_13)"/>
<rect x="379" y="359" width="67" height="67" rx="33.5" fill="url(#paint6_linear_82_13)"/>
<path d="M143 153C143 129.804 161.804 111 185 111H451C474.196 111 493 129.804 493 153V229H143V153Z" fill="url(#paint7_linear_82_13)"/>
<defs>
<linearGradient id="paint0_linear_82_13" x1="143" y1="469.853" x2="207.309" y2="65.6887" gradientUnits="userSpaceOnUse">
<stop stop-color="#322D27"/>
<stop offset="1" stop-color="#87614E"/>
</linearGradient>
<linearGradient id="paint1_linear_82_13" x1="189" y1="329.973" x2="200.715" y2="254.451" gradientUnits="userSpaceOnUse">
<stop stop-color="#63584D"/>
<stop offset="1" stop-color="#8D6957"/>
</linearGradient>
<linearGradient id="paint2_linear_82_13" x1="284" y1="329.973" x2="295.715" y2="254.451" gradientUnits="userSpaceOnUse">
<stop stop-color="#63584D"/>
<stop offset="1" stop-color="#8D6957"/>
</linearGradient>
<linearGradient id="paint3_linear_82_13" x1="379" y1="329.973" x2="390.715" y2="254.451" gradientUnits="userSpaceOnUse">
<stop stop-color="#63584D"/>
<stop offset="1" stop-color="#8D6957"/>
</linearGradient>
<linearGradient id="paint4_linear_82_13" x1="189" y1="425.973" x2="200.715" y2="350.451" gradientUnits="userSpaceOnUse">
<stop stop-color="#63584D"/>
<stop offset="1" stop-color="#8D6957"/>
</linearGradient>
<linearGradient id="paint5_linear_82_13" x1="284" y1="425.973" x2="295.715" y2="350.451" gradientUnits="userSpaceOnUse">
<stop stop-color="#63584D"/>
<stop offset="1" stop-color="#8D6957"/>
</linearGradient>
<linearGradient id="paint6_linear_82_13" x1="379" y1="425.973" x2="390.715" y2="350.451" gradientUnits="userSpaceOnUse">
<stop stop-color="#63584D"/>
<stop offset="1" stop-color="#8D6957"/>
</linearGradient>
<linearGradient id="paint7_linear_82_13" x1="168.337" y1="111" x2="467.663" y2="229" gradientUnits="userSpaceOnUse">
<stop stop-color="#6B5A52"/>
<stop offset="1" stop-color="#856B5A"/>
</linearGradient>
</defs>
</svg>
