<svg width="635" height="582" viewBox="0 0 635 582" fill="none" xmlns="http://www.w3.org/2000/svg">
<rect x="106" y="74" width="423" height="434" rx="80" fill="url(#paint0_linear_82_2)"/>
<rect x="162" y="258" width="81" height="81" rx="40.5" fill="url(#paint1_linear_82_2)"/>
<rect x="276" y="258" width="81" height="81" rx="40.5" fill="url(#paint2_linear_82_2)"/>
<rect x="391" y="258" width="81" height="81" rx="40.5" fill="url(#paint3_linear_82_2)"/>
<rect x="162" y="374" width="81" height="81" rx="40.5" fill="url(#paint4_linear_82_2)"/>
<rect x="276" y="374" width="81" height="81" rx="40.5" fill="url(#paint5_linear_82_2)"/>
<rect x="391" y="374" width="81" height="81" rx="40.5" fill="url(#paint6_linear_82_2)"/>
<path d="M106 154C106 109.817 141.817 74 186 74H449C493.183 74 529 109.817 529 154V217H106V154Z" fill="url(#paint7_linear_82_2)"/>
<defs>
<linearGradient id="paint0_linear_82_2" x1="106" y1="507.823" x2="183.765" y2="19.2294" gradientUnits="userSpaceOnUse">
<stop stop-color="#FEF3E6"/>
<stop offset="1" stop-color="#F2CFBE"/>
</linearGradient>
<linearGradient id="paint1_linear_82_2" x1="162" y1="338.967" x2="176.163" y2="247.665" gradientUnits="userSpaceOnUse">
<stop stop-color="#E7D5C2"/>
<stop offset="1" stop-color="#F2CFBE"/>
</linearGradient>
<linearGradient id="paint2_linear_82_2" x1="276" y1="338.967" x2="290.163" y2="247.665" gradientUnits="userSpaceOnUse">
<stop stop-color="#E7D5C2"/>
<stop offset="1" stop-color="#F2CFBE"/>
</linearGradient>
<linearGradient id="paint3_linear_82_2" x1="391" y1="338.967" x2="405.163" y2="247.665" gradientUnits="userSpaceOnUse">
<stop stop-color="#E7D5C2"/>
<stop offset="1" stop-color="#F2CFBE"/>
</linearGradient>
<linearGradient id="paint4_linear_82_2" x1="162" y1="454.967" x2="176.163" y2="363.665" gradientUnits="userSpaceOnUse">
<stop stop-color="#E7D5C2"/>
<stop offset="1" stop-color="#F2CFBE"/>
</linearGradient>
<linearGradient id="paint5_linear_82_2" x1="276" y1="454.967" x2="290.163" y2="363.665" gradientUnits="userSpaceOnUse">
<stop stop-color="#E7D5C2"/>
<stop offset="1" stop-color="#F2CFBE"/>
</linearGradient>
<linearGradient id="paint6_linear_82_2" x1="391" y1="454.967" x2="405.163" y2="363.665" gradientUnits="userSpaceOnUse">
<stop stop-color="#E7D5C2"/>
<stop offset="1" stop-color="#F2CFBE"/>
</linearGradient>
<linearGradient id="paint7_linear_82_2" x1="136.621" y1="74" x2="498.643" y2="216.328" gradientUnits="userSpaceOnUse">
<stop stop-color="#F4C5AD"/>
<stop offset="1" stop-color="#FBD0B6"/>
</linearGradient>
</defs>
</svg>
