<svg width="635" height="582" viewBox="0 0 635 582" fill="none" xmlns="http://www.w3.org/2000/svg">
<rect x="117" y="174" width="404" height="295" rx="43" fill="url(#paint0_linear_18_94)"/>
<path d="M283.165 85.9569C292.012 80.3373 296.436 77.5275 301.205 76.3537C305.423 75.3154 309.816 75.2055 314.08 76.0315C318.902 76.9654 323.46 79.5504 332.578 84.7205L505.061 182.529C505.157 182.583 505.205 182.61 505.25 182.636C514.369 187.849 520.098 197.452 520.353 207.953C520.354 208.004 520.355 208.06 520.358 208.17L520.969 237.5C520.986 238.323 520.323 239 519.5 239V239H118.5V239C117.672 239 117 238.328 117 237.5V208.345C117 207.995 117 207.82 117.002 207.656C117.112 197.624 122.229 188.311 130.638 182.839C130.776 182.75 130.924 182.656 131.219 182.468L283.165 85.9569Z" fill="url(#paint1_linear_18_94)"/>
<path d="M472.872 486.438C482.749 496.087 498.577 495.902 508.225 486.025C517.874 476.149 517.689 460.321 507.812 450.672L472.872 486.438ZM395.53 410.883L472.872 486.438L507.812 450.672L430.47 375.117L395.53 410.883Z" fill="#F2FBFF"/>
<circle cx="366.5" cy="324.5" r="83.5" stroke="url(#paint2_linear_18_94)" stroke-width="50"/>
<defs>
<linearGradient id="paint0_linear_18_94" x1="266.472" y1="174" x2="349.141" y2="475.146" gradientUnits="userSpaceOnUse">
<stop offset="0.38" stop-color="#A0DEFF"/>
<stop offset="1" stop-color="#D0EEFF"/>
</linearGradient>
<linearGradient id="paint1_linear_18_94" x1="318.406" y1="297.568" x2="318.406" y2="63.2957" gradientUnits="userSpaceOnUse">
<stop stop-color="#A6E0FF"/>
<stop offset="1" stop-color="#EFF6F9"/>
</linearGradient>
<linearGradient id="paint2_linear_18_94" x1="366.5" y1="216" x2="366.5" y2="433" gradientUnits="userSpaceOnUse">
<stop offset="0.065" stop-color="#DFECF4"/>
<stop offset="1" stop-color="white"/>
</linearGradient>
</defs>
</svg>
