<svg width="635" height="582" viewBox="0 0 635 582" fill="none" xmlns="http://www.w3.org/2000/svg">
<rect x="117" y="184" width="404" height="295" rx="43" fill="url(#paint0_linear_20_194)"/>
<path d="M283.165 75.4569C292.012 69.8373 296.436 67.0275 301.205 65.8537C305.423 64.8154 309.816 64.7055 314.08 65.5315C318.902 66.4654 323.46 69.0504 332.578 74.2205L505.061 172.029C505.157 172.083 505.205 172.11 505.25 172.136C514.369 177.349 520.098 186.952 520.353 197.453C520.354 197.504 520.355 197.56 520.358 197.67L520.969 227C520.986 227.823 520.323 228.5 519.5 228.5V228.5H118.5V228.5C117.672 228.5 117 227.828 117 227V197.845C117 197.495 117 197.32 117.002 197.156C117.112 187.124 122.229 177.811 130.638 172.339C130.776 172.25 130.924 172.156 131.219 171.968L283.165 75.4569Z" fill="url(#paint1_linear_20_194)"/>
<path d="M472.872 496.438C482.749 506.087 498.577 505.902 508.225 496.025C517.874 486.149 517.689 470.321 507.812 460.672L472.872 496.438ZM395.53 420.883L472.872 496.438L507.812 460.672L430.47 385.117L395.53 420.883Z" fill="#3D3D3D"/>
<circle cx="366.5" cy="334.5" r="83.5" stroke="url(#paint2_linear_20_194)" stroke-width="50"/>
<defs>
<linearGradient id="paint0_linear_20_194" x1="266.472" y1="184" x2="349.141" y2="485.146" gradientUnits="userSpaceOnUse">
<stop offset="0.11" stop-color="#676767"/>
<stop offset="1"/>
</linearGradient>
<linearGradient id="paint1_linear_20_194" x1="318.406" y1="287.068" x2="318.406" y2="52.7957" gradientUnits="userSpaceOnUse">
<stop stop-color="#535354"/>
<stop offset="1" stop-color="#828282"/>
</linearGradient>
<linearGradient id="paint2_linear_20_194" x1="366.5" y1="226" x2="366.5" y2="443" gradientUnits="userSpaceOnUse">
<stop stop-color="#A8A8A8"/>
<stop offset="1" stop-color="#3D3D3D"/>
</linearGradient>
</defs>
</svg>
