<svg width="635" height="582" viewBox="0 0 635 582" fill="none" xmlns="http://www.w3.org/2000/svg">
<rect x="135" y="105" width="350" height="359" rx="42" fill="url(#paint0_linear_65_27)"/>
<rect x="339" y="144" width="110" height="110" rx="26" fill="url(#paint1_linear_65_27)"/>
<rect x="174" y="144" width="142" height="24" rx="12" fill="url(#paint2_linear_65_27)"/>
<rect x="174" y="187" width="142" height="24" rx="12" fill="url(#paint3_linear_65_27)"/>
<rect x="174" y="230" width="142" height="24" rx="12" fill="url(#paint4_linear_65_27)"/>
<rect x="174" y="273" width="275" height="24" rx="12" fill="url(#paint5_linear_65_27)"/>
<rect x="174" y="316" width="275" height="24" rx="12" fill="url(#paint6_linear_65_27)"/>
<rect x="174" y="359" width="275" height="24" rx="12" fill="url(#paint7_linear_65_27)"/>
<rect x="174" y="402" width="275" height="24" rx="12" fill="url(#paint8_linear_65_27)"/>
<defs>
<linearGradient id="paint0_linear_65_27" x1="135" y1="463.853" x2="199.309" y2="59.6887" gradientUnits="userSpaceOnUse">
<stop stop-color="#C4DDEA"/>
<stop offset="1" stop-color="#F6FCFF"/>
</linearGradient>
<linearGradient id="paint1_linear_65_27" x1="339" y1="253.955" x2="358.234" y2="129.965" gradientUnits="userSpaceOnUse">
<stop stop-color="#F6FCFF"/>
<stop offset="1" stop-color="#C4DDEA"/>
</linearGradient>
<linearGradient id="paint2_linear_65_27" x1="174" y1="167.99" x2="174.726" y2="140.306" gradientUnits="userSpaceOnUse">
<stop stop-color="#F6FCFF"/>
<stop offset="1" stop-color="#C4DDEA"/>
</linearGradient>
<linearGradient id="paint3_linear_65_27" x1="174" y1="210.99" x2="174.726" y2="183.306" gradientUnits="userSpaceOnUse">
<stop stop-color="#F6FCFF"/>
<stop offset="1" stop-color="#C4DDEA"/>
</linearGradient>
<linearGradient id="paint4_linear_65_27" x1="174" y1="253.99" x2="174.726" y2="226.306" gradientUnits="userSpaceOnUse">
<stop stop-color="#F6FCFF"/>
<stop offset="1" stop-color="#C4DDEA"/>
</linearGradient>
<linearGradient id="paint5_linear_65_27" x1="174" y1="296.99" x2="174.375" y2="269.292" gradientUnits="userSpaceOnUse">
<stop stop-color="#F6FCFF"/>
<stop offset="1" stop-color="#C4DDEA"/>
</linearGradient>
<linearGradient id="paint6_linear_65_27" x1="174" y1="339.99" x2="174.375" y2="312.292" gradientUnits="userSpaceOnUse">
<stop stop-color="#F6FCFF"/>
<stop offset="1" stop-color="#C4DDEA"/>
</linearGradient>
<linearGradient id="paint7_linear_65_27" x1="174" y1="382.99" x2="174.375" y2="355.292" gradientUnits="userSpaceOnUse">
<stop stop-color="#F6FCFF"/>
<stop offset="1" stop-color="#C4DDEA"/>
</linearGradient>
<linearGradient id="paint8_linear_65_27" x1="174" y1="425.99" x2="174.375" y2="398.292" gradientUnits="userSpaceOnUse">
<stop stop-color="#F6FCFF"/>
<stop offset="1" stop-color="#C4DDEA"/>
</linearGradient>
</defs>
</svg>
